<mxfile host="Electron" modified="2024-03-23T22:10:06.642Z" agent="Mozilla/5.0 (Windows NT 10.0; Win64; x64) AppleWebKit/537.36 (KHTML, like Gecko) draw.io/24.0.4 Chrome/120.0.6099.109 Electron/28.1.0 Safari/537.36" etag="zgD8GPl4_gMX_0Jo9pqM" version="24.0.4" type="device">
  <diagram name="Page-1" id="Xx0We3IpllJfQBVl44Op">
    <mxGraphModel dx="1434" dy="-24" grid="1" gridSize="10" guides="1" tooltips="1" connect="1" arrows="1" fold="1" page="1" pageScale="1" pageWidth="1169" pageHeight="827" math="0" shadow="0">
      <root>
        <mxCell id="0" />
        <mxCell id="1" parent="0" />
        <mxCell id="i2eoCCeMOjW5cxq8aFjC-4" value="" style="rounded=0;whiteSpace=wrap;html=1;" vertex="1" parent="1">
          <mxGeometry x="520" y="1040" width="530" height="550" as="geometry" />
        </mxCell>
        <mxCell id="i2eoCCeMOjW5cxq8aFjC-1" value="" style="shape=image;verticalLabelPosition=bottom;labelBackgroundColor=default;verticalAlign=top;aspect=fixed;imageAspect=0;image=data:image/svg+xml,PHN2ZyB4bWxuczp4bGluaz0iaHR0cDovL3d3dy53My5vcmcvMTk5OS94bGluayIgeG1sbnM9Imh0dHA6Ly93d3cudzMub3JnLzIwMDAvc3ZnIiB4bWw6c3BhY2U9InByZXNlcnZlIiB2aWV3Qm94PSIwIDAgNTggNTgiIGlkPSJDYXBhXzEiIHZlcnNpb249IjEuMSIgd2lkdGg9IjgwMHB4IiBoZWlnaHQ9IjgwMHB4IiBmaWxsPSIjMDAwMDAwIj4mI3hhOyYjeGE7PGcgc3Ryb2tlLXdpZHRoPSIwIiBpZD0iU1ZHUmVwb19iZ0NhcnJpZXIiLz4mI3hhOyYjeGE7PGcgc3Ryb2tlLWxpbmVqb2luPSJyb3VuZCIgc3Ryb2tlLWxpbmVjYXA9InJvdW5kIiBpZD0iU1ZHUmVwb190cmFjZXJDYXJyaWVyIi8+JiN4YTsmI3hhOzxnIGlkPSJTVkdSZXBvX2ljb25DYXJyaWVyIj4gPGc+IDxwYXRoIGQ9Ik0zMiwwYy0xLjAyMSwwLTIuMDI1LDAuMDc2LTMuMDE1LDAuMjFDMjcuOTUzLDAuMDcyLDI2Ljk3MiwwLDI2LDBDMTguNjM4LDAsMTEuOTk5LDMuNTcxLDcuMzQsOS4yNjQgQzcuMjkzLDkuMzA2LDcuMjU5LDkuMzU2LDcuMjIxLDkuNDA2Yy0xLjQ4NSwxLjgzOS0yLjc2MSwzLjg5OC0zLjc5Myw2LjEyNmMtMC4wMjYsMC4wNDktMC4wNDksMC4wOTctMC4wNjgsMC4xNSBjLTAuNzExLDEuNTU3LTEuMzA0LDMuMTkzLTEuNzYsNC44OTdjLTAuMDQ1LDAuMDk2LTAuMDY1LDAuMjAxLTAuMDc4LDAuMzFDMC44NjEsMjMuNDY1LDAuNSwyNi4xODUsMC41LDI5IGMwLDQuNDA0LDAuODcyLDguNTc5LDIuNDIzLDEyLjMyMWMwLjAxNCwwLjA0LDAuMDI3LDAuMDc4LDAuMDQ2LDAuMTE2YzAuOTMsMi4yMTgsMi4xLDQuMjgsMy40NzMsNi4xNDUgYzAuMDM1LDAuMDQ4LDAuMDY0LDAuMDk5LDAuMTA3LDAuMTRjMS4zOSwxLjg2NSwyLjk4MywzLjUyNiw0Ljc0LDQuOTQyYzAuMDUsMC4wNTUsMC4xMSwwLjA5NiwwLjE3MiwwLjEzOSBDMTUuNTg4LDU2LjA3NSwyMC41OTksNTgsMjYsNThjMC45NzIsMCwxLjk1My0wLjA3MiwyLjk4NS0wLjIxQzI5Ljk3NSw1Ny45MjQsMzAuOTc5LDU4LDMyLDU4YzE0LjA2MSwwLDI1LjUtMTMuMDA5LDI1LjUtMjkgUzQ2LjA2MSwwLDMyLDB6IE0yMS40NCwyLjYxNGMtMC4zMzEsMC4xNzItMC42NTgsMC4zNTItMC45ODEsMC41MzljLTAuMTgxLDAuMTA1LTAuMzYzLDAuMjA2LTAuNTQxLDAuMzE2IEMxOS42NDEsMy42MzksMTkuMzcsMy44MTksMTkuMSw0aC0xLjkyNWMxLjQ2Mi0wLjY4NCwyLjk4OC0xLjIyMyw0LjU3OS0xLjU1OEMyMS42NDcsMi40OTUsMjEuNTQ2LDIuNTU5LDIxLjQ0LDIuNjE0eiBNMTEuMzYsNDYgSDcuNzc0Yy0wLjg4Mi0xLjI0Ni0xLjY2NS0yLjU4NS0yLjM0NS00aDMuNzg4YzAuMTU3LDAuMzU0LDAuMzE4LDAuNzA1LDAuNDg3LDEuMDUxYzAuMDczLDAuMTQ5LDAuMTQ5LDAuMjk2LDAuMjI1LDAuNDQ0IGMwLjIwNSwwLjQwMiwwLjQxNywwLjc5NywwLjYzOCwxLjE4NmMwLjA4MiwwLjE0NSwwLjE2MSwwLjI5MiwwLjI0NiwwLjQzNkMxMC45ODksNDUuNDE2LDExLjE3NCw0NS43MDgsMTEuMzYsNDZ6IE00Ljk2OCwxN2gzLjgyNyBjLTAuMTc1LDAuNDM3LTAuMzQxLDAuODc5LTAuNDk4LDEuMzI3Yy0wLjA0MywwLjEyNC0wLjA4NywwLjI0Ny0wLjEyOSwwLjM3MUM4LjAyNCwxOS4xMjgsNy44OSwxOS41NjIsNy43NjMsMjBIMy44NTcgQzQuMTc1LDE4Ljk2OSw0LjU0NywxNy45NjksNC45NjgsMTd6IE0yLjUsMjljMC0wLjY3NCwwLjAzNi0xLjMzOCwwLjA3OC0yaDMuOTg3Yy0wLjAwMSwwLjAxNi0wLjAwMSwwLjAzMi0wLjAwMiwwLjA0OCBDNi41MjYsMjcuNjk0LDYuNSwyOC4zNDMsNi41LDI5YzAsMC4zMzUsMC4wMTIsMC42NjcsMC4wMjIsMUgyLjUzOUMyLjUyOCwyOS42NjYsMi41LDI5LjMzNywyLjUsMjl6IE02LjYzNiwzMiBjMC4wMzgsMC40MjEsMC4wODcsMC44MzksMC4xNDEsMS4yNTVjMC4wMDQsMC4wMywwLjAwNiwwLjA2MSwwLjAxLDAuMDkyQzYuODYxLDMzLjkwMyw2Ljk1MSwzNC40NTQsNy4wNTIsMzVIMy4xMDggYy0wLjE5NS0wLjk4Mi0wLjM0OS0xLjk4MS0wLjQ0OC0zSDYuNjM2eiBNNy4yNTYsMjJjLTAuMDI2LDAuMTE4LTAuMDQ4LDAuMjM4LTAuMDcyLDAuMzU2Yy0wLjAyNywwLjEzMi0wLjA1NSwwLjI2My0wLjA4MSwwLjM5NSBjLTAuMTIyLDAuNjI3LTAuMjMsMS4yNi0wLjMxNSwxLjkwMmMtMC4wMDQsMC4wMy0wLjAwNiwwLjA2MS0wLjAxLDAuMDkyQzYuNzY2LDI0LjgzLDYuNzU5LDI0LjkxNSw2Ljc0OCwyNUgyLjc3OSBjMC4xMzItMS4wMTgsMC4yOTktMi4wMjIsMC41MjgtM0g3LjI1NnogTTcuNDk1LDM3YzAuMDMxLDAuMTIyLDAuMDYsMC4yNDYsMC4wOTIsMC4zNjdjMC4wMTIsMC4wNDQsMC4wMjIsMC4wOSwwLjAzNCwwLjEzNCBjMC4xNjUsMC42MDksMC4zNSwxLjIwOCwwLjU0OCwxLjhjMC4wNDIsMC4xMjUsMC4wODYsMC4yNDcsMC4xMjksMC4zNzFDOC4zMzUsMzkuNzgyLDguMzcyLDM5Ljg5Miw4LjQxMSw0MEg0LjU1OCBjLTAuMzc5LTAuOTcxLTAuNzA1LTEuOTczLTAuOTgzLTNINy40OTV6IE0xMC44MTIsMTIuODg0Yy0wLjA4NCwwLjE0My0wLjE2NCwwLjI5MS0wLjI0NiwwLjQzNiBjLTAuMjIxLDAuMzg5LTAuNDM0LDAuNzg1LTAuNjM4LDEuMTg2Yy0wLjA3NSwwLjE0OC0wLjE1MiwwLjI5NC0wLjIyNSwwLjQ0NEM5LjY5NSwxNC45NjYsOS42ODYsMTQuOTgzLDkuNjc4LDE1SDUuOTI5IGMwLjc1Ny0xLjQyNywxLjYyOS0yLjc2MiwyLjU5Ni00aDMuNTAzYy0wLjEyMiwwLjE3NS0wLjI0NSwwLjM0OS0wLjM2NCwwLjUyN0MxMS4zNjksMTEuOTcsMTEuMDg1LDEyLjQyMiwxMC44MTIsMTIuODg0eiBNMTMuNzMyLDZoMi43NjJjLTAuMjQ4LDAuMjE3LTAuNDk2LDAuNDM1LTAuNzM3LDAuNjYyYy0wLjIwMSwwLjE5LTAuMzk2LDAuMzg3LTAuNTkyLDAuNTg0Yy0wLjE5OCwwLjE5OS0wLjM5NCwwLjQwMS0wLjU4NiwwLjYwNiBjLTAuMTg1LDAuMTk3LTAuMzcsMC4zOTMtMC41NSwwLjU5NkMxMy44NjksOC42MjgsMTMuNzE2LDguODE1LDEzLjU2MSw5aC0zLjMwMkMxMS4zMzMsNy44ODMsMTIuNDkyLDYuODc2LDEzLjczMiw2eiBNOS4zMjQsNDggaDMuNDMyYzAuMTEzLDAuMTQ4LDAuMjI1LDAuMjk2LDAuMzQxLDAuNDQxYzAuMzAyLDAuMzgsMC42MTMsMC43NSwwLjkzMiwxLjExMWMwLjE3OSwwLjIwMywwLjM2NSwwLjM5OSwwLjU1LDAuNTk2IGMwLjE5MywwLjIwNiwwLjM4OSwwLjQwOCwwLjU4OCwwLjYwN2MwLjA4LDAuMDgsMC4xNTYsMC4xNjYsMC4yMzcsMC4yNDVoLTMuMDA4QzExLjI5Nyw1MC4xMDEsMTAuMjcsNDkuMDk3LDkuMzI0LDQ4eiBNMjEuNzUzLDU1LjU1OGMtMi4yOTMtMC40ODMtNC40Ni0xLjM2OS02LjQ3LTIuNTU4aDIuNDE5YzAuMTI4LDAuMDk5LDAuMjYsMC4xOTIsMC4zODksMC4yODggYzAuMjA3LDAuMTU0LDAuNDE0LDAuMzA5LDAuNjI1LDAuNDU2YzAuMzkzLDAuMjc0LDAuNzk0LDAuNTM3LDEuMjAxLDAuNzg3YzAuMTc4LDAuMTA5LDAuMzYsMC4yMTEsMC41NDEsMC4zMTYgYzAuMzIzLDAuMTg3LDAuNjUsMC4zNjcsMC45ODEsMC41MzlDMjEuNTQ2LDU1LjQ0MSwyMS42NDcsNTUuNTA1LDIxLjc1Myw1NS41NTh6IE0zMiw1NmMtMC43OTUsMC0xLjU4LTAuMDQ3LTIuMzU0LTAuMTM2IGwtMC4zODctMC4wNTRjLTAuMDU0LTAuMDA3LTAuMTA3LTAuMDE2LTAuMTYtMC4wMjNjLTAuMzQ2LTAuMDQ5LTAuNjg5LTAuMTA2LTEuMDI5LTAuMTcyYy0wLjAyOS0wLjAwNi0wLjA1Ny0wLjAxMi0wLjA4NS0wLjAxOCBjLTAuMzMxLTAuMDY1LTAuNjU5LTAuMTM4LTAuOTg0LTAuMjE5Yy0wLjA0OS0wLjAxMi0wLjA5OC0wLjAyNi0wLjE0Ny0wLjAzOWMtMC4zMDMtMC4wNzgtMC42MDUtMC4xNi0wLjkwMy0wLjI1MSBjLTAuMDkxLTAuMDI4LTAuMTgyLTAuMDYtMC4yNzMtMC4wODljLTAuMjU1LTAuMDgxLTAuNTA5LTAuMTY0LTAuNzYtMC4yNTVjLTAuMjA0LTAuMDc0LTAuNDA1LTAuMTU2LTAuNjA2LTAuMjM2IGMtMC4xMzctMC4wNTQtMC4yNzYtMC4xMDUtMC40MTEtMC4xNjJjLTUuMzc3LTIuMjc1LTkuODM2LTYuNzQ4LTEyLjU0OS0xMi40NjZjLTAuMDI1LTAuMDUyLTAuMDQ4LTAuMTA3LTAuMDcyLTAuMTU5IGMtMC4xNDUtMC4zMTEtMC4yODYtMC42MjUtMC40MjEtMC45NDNjLTAuMDU0LTAuMTI3LTAuMTA0LTAuMjU2LTAuMTU2LTAuMzg0Yy0wLjEwMS0wLjI0OC0wLjIwMS0wLjQ5Ny0wLjI5NS0wLjc0OSBjLTAuMDYxLTAuMTYyLTAuMTE4LTAuMzI3LTAuMTc2LTAuNDkxYy0wLjA3OS0wLjIyMi0wLjE1Ny0wLjQ0NS0wLjIzLTAuNjdjLTAuMDYtMC4xODQtMC4xMTctMC4zNy0wLjE3NC0wLjU1NSBjLTAuMDY1LTAuMjExLTAuMTI4LTAuNDIzLTAuMTg4LTAuNjM2QzkuNTg0LDM3LjA5OCw5LjUzMSwzNi45LDkuNDgsMzYuNzAzYy0wLjA1NC0wLjIwOS0wLjEwNi0wLjQyLTAuMTU2LTAuNjMxIGMtMC4wNDgtMC4yMDItMC4wOTQtMC40MDQtMC4xMzgtMC42MDhjLTAuMDQ2LTAuMjEzLTAuMDg4LTAuNDI3LTAuMTI5LTAuNjQyYy0wLjAzOS0wLjIwNS0wLjA3OC0wLjQxLTAuMTE0LTAuNjE3IGMtMC4wMzgtMC4yMjEtMC4wNzEtMC40NDMtMC4xMDQtMC42NjZjLTAuMDMtMC4yMDItMC4wNjEtMC40MDMtMC4wODctMC42MDdjLTAuMDMxLTAuMjQtMC4wNTUtMC40ODMtMC4wOC0wLjcyNSBjLTAuMDItMC4xODktMC4wNDItMC4zNzctMC4wNTgtMC41NjdjLTAuMDI0LTAuMjc4LTAuMDQtMC41NTgtMC4wNTYtMC44MzljLTAuMDA5LTAuMTU4LTAuMDIyLTAuMzE0LTAuMDI5LTAuNDcyIEM4LjUxMSwyOS44ODksOC41LDI5LjQ0Niw4LjUsMjlzMC4wMTEtMC44ODksMC4wMjktMS4zM2MwLjAwNy0wLjE1OCwwLjAyLTAuMzE1LDAuMDI5LTAuNDcyYzAuMDE2LTAuMjgsMC4wMzItMC41NjEsMC4wNTYtMC44MzkgYzAuMDE2LTAuMTksMC4wMzgtMC4zNzgsMC4wNTgtMC41NjdjMC4wMjUtMC4yNDIsMC4wNS0wLjQ4NCwwLjA4LTAuNzI1YzAuMDI2LTAuMjAzLDAuMDU3LTAuNDA1LDAuMDg3LTAuNjA3IGMwLjAzMy0wLjIyMywwLjA2Ni0wLjQ0NSwwLjEwNC0wLjY2NmMwLjAzNS0wLjIwNywwLjA3NC0wLjQxMiwwLjExNC0wLjYxN2MwLjA0MS0wLjIxNSwwLjA4NC0wLjQyOSwwLjEyOS0wLjY0MiBjMC4wNDQtMC4yMDQsMC4wOS0wLjQwNiwwLjEzOC0wLjYwOGMwLjA1LTAuMjExLDAuMTAyLTAuNDIyLDAuMTU2LTAuNjMxYzAuMDUxLTAuMTk4LDAuMTA0LTAuMzk1LDAuMTU5LTAuNTkxIGMwLjA2LTAuMjEzLDAuMTIzLTAuNDI1LDAuMTg4LTAuNjM2YzAuMDU3LTAuMTg2LDAuMTE0LTAuMzcxLDAuMTc0LTAuNTU1YzAuMDc0LTAuMjI1LDAuMTUyLTAuNDQ4LDAuMjMxLTAuNjcxIGMwLjA1OC0wLjE2NCwwLjExNS0wLjMyOCwwLjE3Ni0wLjQ5YzAuMDk1LTAuMjUyLDAuMTk0LTAuNTAxLDAuMjk1LTAuNzQ5YzAuMDUyLTAuMTI4LDAuMTAyLTAuMjU3LDAuMTU2LTAuMzg0IGMwLjEzNS0wLjMxOCwwLjI3Ni0wLjYzMiwwLjQyMS0wLjk0M2MwLjAyNS0wLjA1MywwLjA0Ny0wLjEwNywwLjA3Mi0wLjE1OWMyLjcxMy01LjcxOCw3LjE3Mi0xMC4xOSwxMi41NDktMTIuNDY2IGMwLjEzNi0wLjA1NywwLjI3NC0wLjEwOCwwLjQxMS0wLjE2MmMwLjIwMS0wLjA4LDAuNDAyLTAuMTYyLDAuNjA2LTAuMjM2YzAuMjUxLTAuMDkxLDAuNTA1LTAuMTczLDAuNzYtMC4yNTUgYzAuMDkxLTAuMDI5LDAuMTgxLTAuMDYxLDAuMjczLTAuMDg5YzAuMjk4LTAuMDkxLDAuNi0wLjE3NCwwLjkwMy0wLjI1MUMyNi45MDIsMi42NDgsMjYuOTUxLDIuNjMzLDI3LDIuNjIxIGMwLjMyNS0wLjA4MSwwLjY1My0wLjE1MywwLjk4NC0wLjIxOWMwLjAyOS0wLjAwNiwwLjA1Ny0wLjAxMiwwLjA4NS0wLjAxOGMwLjM0LTAuMDY2LDAuNjgzLTAuMTIzLDEuMDI5LTAuMTcyIGMwLjA1My0wLjAwOCwwLjEwNy0wLjAxNiwwLjE2LTAuMDIzbDAuMzg3LTAuMDU0QzMwLjQyLDIuMDQ3LDMxLjIwNSwyLDMyLDJjMTIuOTU4LDAsMjMuNSwxMi4xMTIsMjMuNSwyN1M0NC45NTgsNTYsMzIsNTZ6Ii8+IDxwYXRoIGQ9Ik0zMiw0QzIwLjE0NSw0LDEwLjUsMTUuMjE1LDEwLjUsMjljMCw4LjYxOCwzLjc3LDE2LjIzMiw5LjQ5MywyMC43MjlsLTAuMDA5LDAuMDE3bDAuNzE1LDAuNTE2IGMwLjAyMywwLjAxNywwLjA0NywwLjAzLDAuMDcsMC4wNDdjMC4zNzMsMC4yNjcsMC43NTQsMC41MTksMS4xNDEsMC43NmMwLjA4NSwwLjA1MywwLjE3MiwwLjEwMiwwLjI1OCwwLjE1NCBjMC4zMzEsMC4xOTksMC42NjgsMC4zODgsMS4wMDksMC41NjhjMC4wODQsMC4wNDQsMC4xNjYsMC4wODksMC4yNSwwLjEzMmMwLjQxOSwwLjIxMywwLjg0NCwwLjQxMywxLjI3NiwwLjU5NSBjMC4wMTIsMC4wMDUsMC4wMjUsMC4wMDksMC4wMzcsMC4wMTVjMC40MTQsMC4xNzMsMC44MzUsMC4zMjgsMS4yNiwwLjQ3MmMwLjA4MiwwLjAyOCwwLjE2NCwwLjA1NSwwLjI0NiwwLjA4MSBjMC40MjMsMC4xMzcsMC44NSwwLjI2MiwxLjI4MywwLjM2OWMwLjAxNCwwLjAwMywwLjAyOCwwLjAwOCwwLjA0MiwwLjAxMWMwLjQ1LDAuMTEsMC45MDYsMC4yMDIsMS4zNjcsMC4yNzggYzAuMDg5LDAuMDE1LDAuMTc4LDAuMDI2LDAuMjY2LDAuMDM5YzAuMzYxLDAuMDU1LDAuNzI1LDAuMDk5LDEuMDkyLDAuMTMzYzAuMTE3LDAuMDExLDAuMjM0LDAuMDIzLDAuMzUxLDAuMDMxIEMzMS4wOTUsNTMuOTc4LDMxLjU0NSw1NCwzMiw1NGMwLjYyOCwwLDEuMjQ3LTAuMDM4LDEuODYxLTAuMWMwLjA2LTAuMDA2LDAuMTItMC4wMDksMC4xNzktMC4wMTYgYzAuNjAyLTAuMDY2LDEuMTk2LTAuMTY1LDEuNzgzLTAuMjg4YzAuMDY0LTAuMDEzLDAuMTI3LTAuMDI2LDAuMTkxLTAuMDRjMC41OTEtMC4xMywxLjE3My0wLjI5LDEuNzQ2LTAuNDc1IGMwLjA1Ny0wLjAxOCwwLjExMy0wLjAzNywwLjE3LTAuMDU2YzAuNTgxLTAuMTk0LDEuMTUyLTAuNDE0LDEuNzEyLTAuNjYzYzAuMDQ4LTAuMDIxLDAuMDk1LTAuMDQ0LDAuMTQzLTAuMDY1IGMwLjU2OS0wLjI1OCwxLjEyNy0wLjU0LDEuNjcxLTAuODUxYzAuMDM3LTAuMDIxLDAuMDc0LTAuMDQ1LDAuMTExLTAuMDY2YzAuNTU2LTAuMzIzLDEuMS0wLjY2OSwxLjYyOC0xLjA0NCBjMC4wMjEtMC4wMTUsMC4wNDItMC4wMzIsMC4wNjMtMC4wNDdjMC41NC0wLjM4OCwxLjA2Ni0wLjgwMSwxLjU3NC0xLjI0MWMwLjAwNi0wLjAwNSwwLjAxMy0wLjAxLDAuMDE5LTAuMDE2IGMwLjUwNy0wLjQ0MSwwLjk5NS0wLjkxMSwxLjQ2Ny0xLjQwMWMwLjAyMS0wLjAyMiwwLjA0NC0wLjA0LDAuMDY1LTAuMDYybDAuNDctMC40OTNsLTAuMDA4LTAuMDE2IEM1MC45NCw0Mi41MDYsNTMuNSwzNi4wOTYsNTMuNSwyOUM1My41LDE1LjIxNSw0My44NTUsNCwzMiw0eiBNMTIuNSwyOWMwLTEyLjY4Miw4Ljc0OC0yMywxOS41LTIzczE5LjUsMTAuMzE4LDE5LjUsMjMgYzAsNi4zNDEtMi4xODcsMTIuMDktNS43MTcsMTYuMjU1Yy0wLjM4Ni0wLjQ0OC0wLjgzNS0wLjgxOS0xLjM0Ny0xLjA3N2wtNC42ODctMi40MTJjLTAuMDA4LTAuMDA5LTAuMDMtMC4wNTItMC4wMy0wLjEyNXYtMS4xODIgYzIuMTUzLTEuMzc2LDMuNjMtMy42MDgsNC4zOTktNi42NDljMS4xMTYtMC42NTQsMS44MzMtMS45NjEsMS44MzMtMy40MjJ2LTEuNDM4YzAtMS4yMDgtMC41MDMtMi4zNjgtMS4zMzctMy4xMzUgYy0wLjY3My01LjUwNS0zLjg5OC04LjU2NS05Ljg0OC05LjM1Yy0wLjI5Ni0wLjAzOS0wLjU4OC0wLjA2NS0wLjg3NS0wLjA3N2MtMS4zNDUtMC4wNTktMy4zMzEtMC40NTgtNS4xNTktMi4wMjMgYy0wLjcxNC0wLjYxMS0xLjI2NC0xLjE5OS0xLjYzMy0xLjc0NmMtMC4zNTUtMC41MjctMS4wMDQtMC43NS0xLjU3NS0wLjU0Yy0wLjU1OSwwLjIwNC0wLjg5MSwwLjc1LTAuODI1LDEuMzYgYzAuMDc3LDAuNzE1LDAuMTgzLDEuNDM3LDAuMzE1LDIuMTQ3YzAuMzU1LDEuOTEyLDAuMzI2LDEuOTc1LTAuMTcsMy4wMjdjLTAuMTYzLDAuMzQ1LTAuMzYyLDAuNzctMC41OTksMS4zNDMgYy0wLjU1NSwxLjM0OS0wLjk0MSwyLjg2My0xLjE0OSw0LjUwOGMtMS4xNjQsMC43NzQtMS44NjcsMi4wODQtMS44NjcsMy41NDF2MS43M2MwLDEuNzI2LDEuMDIxLDMuMzE0LDIuNTQsNC4wNDEgYzEuMDA0LDMuNDgyLDIuODQ4LDUuOTAyLDUuNDksNy4yMDd2MS4yMThjMCwwLjEyNi0wLjA2OSwwLjI1Ni0wLjE2OSwwLjMxNmwtNi4yMSwzLjc1M2MtMC43MDYsMC40NjUtMS4zMjUsMS4wNjEtMS44NDIsMS43NDIgQzE1Ljg4OSw0My44NjgsMTIuNSwzNi44OTIsMTIuNSwyOXogTTM1LjI5Nyw1MS42NjVjLTAuNTA1LDAuMTAzLTEuMDE0LDAuMTgxLTEuNTI2LDAuMjM2Yy0wLjA3LDAuMDA3LTAuMTQsMC4wMTItMC4yMSwwLjAxOSBDMzMuMDQzLDUxLjk2OSwzMi41MjMsNTIsMzIsNTJjLTAuMzgxLDAtMC43Ni0wLjAxNi0xLjEzOS0wLjA0MmMtMC4wOTktMC4wMDctMC4xOTYtMC4wMTgtMC4yOTUtMC4wMjYgYy0wLjI5LTAuMDI1LTAuNTc5LTAuMDU2LTAuODY3LTAuMDk3Yy0wLjA5Ni0wLjAxMy0wLjE5MS0wLjAyOC0wLjI4Ni0wLjA0M2MtMC4zMTYtMC4wNS0wLjYzMS0wLjEwOC0wLjk0NC0wLjE3NiBjLTAuMDU0LTAuMDEyLTAuMTA5LTAuMDIyLTAuMTYzLTAuMDM0Yy0xLjE2NS0wLjI2Ni0yLjMwNi0wLjY1Ni0zLjQxLTEuMTY4Yy0wLjAyMy0wLjAxMS0wLjA0Ny0wLjAyMi0wLjA3LTAuMDMzIGMtMC43NDItMC4zNDgtMS40NjgtMC43NDktMi4xNzItMS4yMDVjMC4zNzItMC40ODIsMC44MTMtMC44OTYsMS4yOTQtMS4yMTRsNi4xNzctMy43MzJjMC43LTAuNDIzLDEuMTM1LTEuMiwxLjEzNS0yLjAyOHYtMi41MzQgbC0wLjYyLTAuMjU1Yy0yLjQ4OS0xLjAyMS00LjE5NC0zLjI1Mi01LjA2OC02LjYyOGwtMC4xMzgtMC41MzFsLTAuNTIyLTAuMTY5Yy0wLjk5MS0wLjMyMS0xLjY4My0xLjI4Ny0xLjY4My0yLjM0OXYtMS43MyBjMC0wLjg4MSwwLjQ3NC0xLjY1NywxLjIzOC0yLjAyNWwwLjUwMy0wLjI0M2wwLjA1Ny0wLjU1NmMwLjE2OS0xLjY1MiwwLjUyOS0zLjE1NCwxLjA2Ny00LjQ2MiBjMC4yMi0wLjUzNCwwLjQwNy0wLjkzMSwwLjU1OS0xLjI1M2MwLjY0OC0xLjM3NiwwLjc1Ni0xLjg0NSwwLjM4NC0zLjkyOWMwLjEyNiwwLjExNSwwLjI1NiwwLjIzMSwwLjM5MiwwLjM0NyBjMS43ODksMS41MzMsMy45OTMsMi4zOTgsNi4zNzMsMi41MDJjMC4yMywwLjAxLDAuNDY0LDAuMDMsMC43MDEsMC4wNjJjNS4xNzksMC42ODMsNy42OTcsMy4xNDUsOC4xNjUsNy45ODFsMC4wNDQsMC40NTkgbDAuMzc4LDAuMjY0YzAuNTMsMC4zNzEsMC44NiwxLjA2LDAuODYsMS43OTh2MS40MzhjMCwwLjgyOC0wLjQyOCwxLjU2NC0xLjA0MSwxLjc5bC0wLjUxMywwLjE4OGwtMC4xMTksMC41MzMgYy0wLjY2NSwyLjk4NS0xLjk4Nyw0Ljk4NS00LjA0Miw2LjExNWwtMC41MTgsMC4yODV2Mi4zNDJjMCwwLjgxNiwwLjQxOCwxLjUzOSwxLjA5MSwxLjg4Nmw0LjcxNSwyLjQzMWwwLjAwOCwwLjAwNCBjMC4zMzUsMC4xNjksMC42MzEsMC40MjYsMC44NzYsMC43NThjLTIuNjAxLDIuNTM5LTUuNjkzLDQuMjIxLTguOTc0LDQuOTE2QzM1LjM4OSw1MS42NDUsMzUuMzQzLDUxLjY1NSwzNS4yOTcsNTEuNjY1eiIvPiA8L2c+IDwvZz4mI3hhOyYjeGE7PC9zdmc+;imageBackground=none;fontStyle=1" vertex="1" parent="1">
          <mxGeometry x="170" y="1170" width="220" height="220" as="geometry" />
        </mxCell>
        <mxCell id="i2eoCCeMOjW5cxq8aFjC-2" value="&lt;font size=&quot;1&quot; style=&quot;&quot; face=&quot;Verdana&quot;&gt;&lt;b style=&quot;font-size: 24px;&quot;&gt;Vote NFT&lt;/b&gt;&lt;/font&gt;" style="text;html=1;align=center;verticalAlign=middle;resizable=0;points=[];autosize=1;strokeColor=none;fillColor=none;" vertex="1" parent="1">
          <mxGeometry x="205" y="1120" width="150" height="40" as="geometry" />
        </mxCell>
        <mxCell id="i2eoCCeMOjW5cxq8aFjC-3" value="" style="rounded=1;whiteSpace=wrap;html=1;" vertex="1" parent="1">
          <mxGeometry x="540" y="1060" width="490" height="160" as="geometry" />
        </mxCell>
        <mxCell id="i2eoCCeMOjW5cxq8aFjC-6" value="&lt;font style=&quot;font-size: 24px;&quot;&gt;&lt;b&gt;NFT Metadata composition&lt;/b&gt;&lt;/font&gt;" style="text;html=1;align=center;verticalAlign=middle;resizable=0;points=[];autosize=1;strokeColor=none;fillColor=none;" vertex="1" parent="1">
          <mxGeometry x="620" y="990" width="330" height="40" as="geometry" />
        </mxCell>
        <mxCell id="i2eoCCeMOjW5cxq8aFjC-7" value="Text" style="text;html=1;align=center;verticalAlign=middle;resizable=0;points=[];autosize=1;strokeColor=none;fillColor=none;" vertex="1" parent="1">
          <mxGeometry x="515" y="958" width="50" height="30" as="geometry" />
        </mxCell>
      </root>
    </mxGraphModel>
  </diagram>
</mxfile>
